HIERARCHY
ROOT root
{
	OFFSET	0	13.1	24.9
	CHANNELS 6  Xposition Yposition Zposition Xrotation Yrotation Zrotation
	JOINT spine_1
	{
		OFFSET	0	9.99999	0
		CHANNELS 3  Xrotation Yrotation Zrotation
		JOINT spine_2
		{
			OFFSET	0	112	-10
			CHANNELS 3  Xrotation Yrotation Zrotation
			JOINT spine_3
			{
				OFFSET	0	206.5	19.3
				CHANNELS 3  Xrotation Yrotation Zrotation
				JOINT spine_4
				{
					OFFSET	0	110.4	14.6
					CHANNELS 3  Xrotation Yrotation Zrotation
					JOINT neck_1
					{
						OFFSET	0	71.8	-50.3
						CHANNELS 3  Xrotation Yrotation Zrotation
						JOINT neck_2
						{
							OFFSET	0	86.2	-25.8
							CHANNELS 3  Xrotation Yrotation Zrotation
							JOINT head_ee
							{
								OFFSET	0	179.8	-8.7
								CHANNELS 3  Xrotation Yrotation Zrotation
								End Site
								{
									OFFSET	1	0	0
								}
							}
						}
					}
					JOINT left_clavicle
					{
						OFFSET	-43.2	22.4	-70.8
						CHANNELS 3  Xrotation Yrotation Zrotation
						JOINT left_shoulder
						{
							OFFSET	-93.9	-5.79999	48.7
							CHANNELS 3  Xrotation Yrotation Zrotation
							JOINT left_elbow
							{
								OFFSET	-291.4	-30.8	15.2
								CHANNELS 3  Xrotation Yrotation Zrotation
								JOINT left_lowarm_twist
								{
									OFFSET	-110.7	-3.89999	13.6
									CHANNELS 3  Xrotation Yrotation Zrotation
									JOINT left_hand
									{
										OFFSET	-110.7	-3.89999	13.6
										CHANNELS 3  Xrotation Yrotation Zrotation
										JOINT left_ee
										{
											OFFSET	-80.8	-5.10001	12.1
											CHANNELS 3  Xrotation Yrotation Zrotation
											End Site
											{
												OFFSET	1	0	0
											}
										}
									}
								}
							}
						}
					}
					JOINT right_clavicle
					{
						OFFSET	43.2	22.4	-70.8
						CHANNELS 3  Xrotation Yrotation Zrotation
						JOINT right_shoulder
						{
							OFFSET	93.9	-5.79999	48.7
							CHANNELS 3  Xrotation Yrotation Zrotation
							JOINT right_elbow
							{
								OFFSET	291.4	-30.8	15.2
								CHANNELS 3  Xrotation Yrotation Zrotation
								JOINT right_lowarm_twist
								{
									OFFSET	110.7	-3.89999	13.6
									CHANNELS 3  Xrotation Yrotation Zrotation
									JOINT right_hand
									{
										OFFSET	110.7	-3.89999	13.6
										CHANNELS 3  Xrotation Yrotation Zrotation
										JOINT right_ee
										{
											OFFSET	80.8	-5.10001	12.1
											CHANNELS 3  Xrotation Yrotation Zrotation
											End Site
											{
												OFFSET	1	0	0
											}
										}
									}
								}
							}
						}
					}
				}
			}
		}
	}
	JOINT left_hip
	{
		OFFSET	-82.8	-127.5	0.300001
		CHANNELS 3  Xrotation Yrotation Zrotation
		JOINT left_knee
		{
			OFFSET	-28.2	-396.7	2.2
			CHANNELS 3  Xrotation Yrotation Zrotation
			JOINT left_ankle
			{
				OFFSET	-11.7	-411.3	35.4
				CHANNELS 3  Xrotation Yrotation Zrotation
				JOINT left_toes
				{
					OFFSET	0	-60	-88.6
					CHANNELS 3  Xrotation Yrotation Zrotation
					JOINT left_foot_ee
					{
						OFFSET	-22.5	-16.5	-42.2
						CHANNELS 3  Xrotation Yrotation Zrotation
						End Site
						{
							OFFSET	1	0	0
						}
					}
				}
			}
		}
	}
	JOINT right_hip
	{
		OFFSET	82.8	-127.5	0.300001
		CHANNELS 3  Xrotation Yrotation Zrotation
		JOINT right_knee
		{
			OFFSET	28.2	-396.7	2.2
			CHANNELS 3  Xrotation Yrotation Zrotation
			JOINT right_ankle
			{
				OFFSET	11.7	-411.3	35.4
				CHANNELS 3  Xrotation Yrotation Zrotation
				JOINT right_toes
				{
					OFFSET	0	-60	-88.6
					CHANNELS 3  Xrotation Yrotation Zrotation
					JOINT right_foot_ee
					{
						OFFSET	22.5	-16.5	-42.2
						CHANNELS 3  Xrotation Yrotation Zrotation
						End Site
						{
							OFFSET	1	0	0
						}
					}
				}
			}
		}
	}
}
MOTION
Frames: 10
Frame Time: 0.02
2890.17057792 692.921 -1581.38443047 -19.5490420675 84.2788012053 19.5306866868 1.68798 0.146762 2.42972 1.69127 -0.00809787 2.43413 1.69097 -0.449378 2.39233 1.68299 -0.066031 2.43325 -12.8206 8.022 -3.71824 -12.9768 17.5861 -1.15595 -0.0 0.0 -0.0 -7.55991 11.9417 -11.5349 14.0058 -20.5374 69.9754 1.76864 -41.2188 0.665164 -10.7074 -0.497885 1.27323 -0.0406137 24.7778 9.61235 -0.0 0.0 -0.0 12.6583 21.9558 -25.2982 -14.4434 -4.01078 -69.3138 0.270224 7.62452 -0.0180064 7.21843 -0.197834 0.900238 0.559749 5.56966 -1.41381 0.0 0.0 0.0 8.42703 6.32847 -2.45878 -11.7646 0.302865 1.7769 40.0087 -4.84673 -4.93004 -37.7574 0.0 0.0 -0.0 0.0 -0.0 24.4831 8.17221 -6.23966 -56.4907 1.8332 -8.1276 33.0747 -23.9867 4.42752 35.7525 -0.0 -0.0 0.0 0.0 0.0 
2883.82629544 700.992 -1562.34256757 -26.5964928112 86.6269738744 26.6657677302 1.57358 0.0640676 2.31337 1.57655 -0.0832277 2.31276 1.57327 -0.505926 2.2583 1.56618 -0.14302 2.30983 -12.5778 7.75929 -3.74925 -12.7138 17.1104 -1.30489 -0.0 0.0 -0.0 -7.22868 10.5359 -11.3656 15.6005 -21.0629 69.4575 1.74241 -40.7952 0.647957 -11.4317 -0.54006 1.35575 -0.19662 23.1982 8.12266 -0.0 0.0 -0.0 12.7014 21.6087 -25.4272 -16.9949 -4.69925 -69.422 0.211278 5.97504 -0.0110265 7.25766 -0.198597 0.905192 0.359155 5.37144 -0.144956 0.0 0.0 0.0 5.66399 6.7209 -1.90412 -9.71567 0.27648 1.46363 39.4117 -7.14819 -4.91639 -38.0753 0.0 0.0 -0.0 0.0 -0.0 27.216 7.84836 -6.99734 -51.3395 1.34082 -7.50526 30.9076 -24.8858 4.20857 34.655 -0.0 -0.0 0.0 0.0 0.0 
2888.03400037 700.992 -1551.44521344 -59.9886319136 88.2568038078 60.0861677657 1.57358 0.0640676 2.31337 1.57655 -0.0832277 2.31276 1.57327 -0.505926 2.2583 1.56618 -0.14302 2.30983 -12.5778 7.75929 -3.74925 -12.7138 17.1104 -1.30489 -0.0 0.0 -0.0 -7.22868 10.5359 -11.3656 15.6005 -21.0629 69.4575 1.74241 -40.7952 0.647957 -11.4317 -0.54006 1.35575 -0.19662 23.1982 8.12266 -0.0 0.0 -0.0 12.7014 21.6087 -25.4272 -16.9949 -4.69925 -69.422 0.211278 5.97504 -0.0110265 7.25766 -0.198597 0.905192 0.359155 5.37144 -0.144956 0.0 0.0 0.0 5.66399 6.7209 -1.90412 -9.71567 0.27648 1.46363 39.4117 -7.14819 -4.91639 -38.0753 0.0 0.0 -0.0 0.0 -0.0 27.216 7.84836 -6.99734 -51.3395 1.34082 -7.50526 30.9076 -24.8858 4.20857 34.655 -0.0 -0.0 0.0 0.0 0.0 
2881.74277709 697.83 -1536.36067995 -110.08764388 88.4561697214 110.43172222 1.53277 -0.00890937 2.07021 1.53514 -0.140596 2.06545 1.53012 -0.518469 2.00428 1.52456 -0.195495 2.06098 -12.5145 7.38112 -4.03995 -12.6303 16.5778 -1.70828 -0.0 0.0 -0.0 -7.14456 9.08551 -11.6354 17.2208 -21.4761 68.2828 1.73008 -40.594 0.639914 -11.8412 -0.564362 1.40216 -0.386614 21.1124 6.20028 -0.0 0.0 -0.0 12.3819 21.2019 -24.7222 -18.958 -5.07391 -69.4333 0.200564 5.67407 -0.00993925 7.4358 -0.202023 0.927689 0.131514 4.58692 1.05688 0.0 0.0 0.0 3.74552 6.95422 -1.5465 -8.51099 0.255743 1.27994 39.4792 -8.75924 -4.95403 -38.0296 0.0 0.0 -0.0 0.0 -0.0 29.0637 7.74257 -6.5965 -47.0872 0.978052 -6.96036 30.4079 -26.453 4.19179 34.0353 -0.0 -0.0 0.0 0.0 0.0 
2860.36938032 692.145 -1519.44537027 -126.427399729 88.293192063 126.881790048 1.3695 -0.179302 1.8179 1.37129 -0.294597 1.80282 1.36202 -0.626547 1.71594 1.35808 -0.347729 1.79333 -11.7487 7.45852 -4.72485 -11.8316 17.1816 -2.46377 -0.0 0.0 -0.0 -5.71633 6.47695 -9.67575 21.491 -22.089 66.6347 1.72959 -40.5861 0.6396 -12.7663 -0.620494 1.50638 -0.965964 18.0491 1.47066 -0.0 0.0 -0.0 11.4862 20.0637 -22.7545 -22.0329 -5.62298 -68.4005 0.292655 8.24905 -0.0211038 8.08542 -0.21392 1.00982 -0.0729877 3.69542 2.05541 0.0 0.0 0.0 0.311811 9.29033 0.146116 -5.97268 0.19943 0.894522 39.4978 -10.6021 -4.99732 -36.6306 0.0 0.0 -0.0 0.0 -0.0 31.8816 8.57561 -5.04922 -38.8503 0.39525 -5.83667 26.0612 -29.113 3.73736 31.5285 -0.0 -0.0 0.0 0.0 0.0 
2847.37160042 691.072 -1509.55430845 -108.699630788 88.2779745078 108.788052763 1.30561 -0.0450871 1.69444 1.3072 -0.152802 1.68814 1.30279 -0.467417 1.62933 1.29914 -0.204267 1.68269 -11.5267 6.89932 -4.69972 -11.5847 16.1141 -2.63307 -0.0 0.0 -0.0 -4.89268 6.37634 -8.16388 23.4287 -21.6542 66.4629 1.84661 -42.4468 0.717175 -13.6851 -0.677901 1.60899 -1.29385 16.6084 -1.15769 -0.0 0.0 -0.0 10.8592 18.5758 -21.4312 -23.705 -5.94075 -67.9701 0.382196 10.721 -0.0358626 8.14842 -0.215024 1.01779 -0.193957 3.63475 2.84415 0.0 0.0 0.0 -0.921033 10.011 1.3867 -5.15829 0.177749 0.771424 39.7407 -12.0025 -5.05427 -36.3238 0.0 0.0 -0.0 0.0 -0.0 33.0755 8.44174 -4.58757 -35.0986 0.184739 -5.30006 20.5311 -29.1712 3.01711 29.6567 -0.0 -0.0 0.0 0.0 0.0 
2847.50379317 691.072 -1509.28178791 -110.178897736 88.2622061238 110.267994124 1.30561 -0.0450871 1.69444 1.3072 -0.152802 1.68814 1.30279 -0.467417 1.62933 1.29914 -0.204267 1.68269 -11.5267 6.89932 -4.69972 -11.5847 16.1141 -2.63307 -0.0 0.0 -0.0 -4.89268 6.37634 -8.16388 23.4287 -21.6542 66.4629 1.84661 -42.4468 0.717175 -13.6851 -0.677901 1.60899 -1.29385 16.6084 -1.15769 -0.0 0.0 -0.0 10.8592 18.5758 -21.4312 -23.705 -5.94075 -67.9701 0.382196 10.721 -0.0358626 8.14842 -0.215024 1.01779 -0.193957 3.63475 2.84415 0.0 0.0 0.0 -0.921033 10.011 1.3867 -5.15829 0.177749 0.771424 39.7407 -12.0025 -5.05427 -36.3238 0.0 0.0 -0.0 0.0 -0.0 33.0755 8.44174 -4.58757 -35.0986 0.184739 -5.30006 20.5311 -29.1712 3.01711 29.6567 -0.0 -0.0 0.0 0.0 0.0 
2822.64470388 692.76 -1500.3232296 -147.131120208 88.3837248319 146.822959156 0.685692 -0.0378283 1.44334 0.686842 -0.129585 1.43801 0.683824 -0.412535 1.38366 0.681201 -0.188859 1.43143 -11.2373 6.76431 -4.99745 -11.2766 16.0625 -3.00241 -0.0 0.0 -0.0 -3.75978 5.61271 -6.22413 26.3586 -22.0082 66.4966 1.99205 -44.6144 0.817361 -14.7654 -0.747508 1.72845 -1.75263 14.9088 -4.77253 -0.0 0.0 -0.0 10.3669 16.5715 -20.4375 -25.9811 -6.4206 -67.1049 0.425486 11.9024 -0.0443543 8.55401 -0.221923 1.06914 -0.324264 3.39055 3.61754 0.0 0.0 0.0 -4.16675 11.4187 3.06867 -3.89304 0.140597 0.580805 39.792 -12.908 -5.08372 -35.4328 0.0 0.0 -0.0 0.0 -0.0 35.655 9.42763 -4.03695 -28.235 -0.107612 -4.28803 16.0445 -28.5858 2.3891 27.46 -0.0 -0.0 0.0 0.0 0.0 
2822.05752023 692.76 -1501.56028303 -142.84987668 88.5475214596 142.540185792 0.685692 -0.0378283 1.44334 0.686842 -0.129585 1.43801 0.683824 -0.412535 1.38366 0.681201 -0.188859 1.43143 -11.2373 6.76431 -4.99745 -11.2766 16.0625 -3.00241 -0.0 0.0 -0.0 -3.75978 5.61271 -6.22413 26.3586 -22.0082 66.4966 1.99205 -44.6144 0.817361 -14.7654 -0.747508 1.72845 -1.75263 14.9088 -4.77253 -0.0 0.0 -0.0 10.3669 16.5715 -20.4375 -25.9811 -6.4206 -67.1049 0.425486 11.9024 -0.0443543 8.55401 -0.221923 1.06914 -0.324264 3.39055 3.61754 0.0 0.0 0.0 -4.16675 11.4187 3.06867 -3.89304 0.140597 0.580805 39.792 -12.908 -5.08372 -35.4328 0.0 0.0 -0.0 0.0 -0.0 35.655 9.42763 -4.03695 -28.235 -0.107612 -4.28803 16.0445 -28.5858 2.3891 27.46 -0.0 -0.0 0.0 0.0 0.0 
2809.14638783 691.771 -1505.03019824 -146.972683628 88.6188993309 146.378363842 0.473407 -0.0520525 1.35716 0.474421 -0.138299 1.3511 0.471405 -0.408617 1.29524 0.469119 -0.198949 1.34351 -11.1076 6.67371 -5.15619 -11.137 16.0001 -3.20084 -0.0 0.0 -0.0 -3.44378 5.39931 -5.67993 27.5841 -21.9673 66.2585 2.05371 -45.4873 0.860999 -15.0888 -0.768785 1.76397 -1.87927 14.3386 -5.83525 -0.0 0.0 -0.0 10.2781 15.8964 -20.2721 -26.5167 -6.44851 -67.2294 0.448205 12.5184 -0.0491596 8.68036 -0.223998 1.08515 -0.361592 3.24926 3.80846 0.0 0.0 0.0 -5.46215 11.9666 3.95881 -3.47955 0.127544 0.518689 39.5298 -13.1377 -5.06719 -35.2476 0.0 0.0 -0.0 0.0 -0.0 37.3144 9.68544 -3.67296 -25.276 -0.195832 -3.84253 14.5025 -28.3647 2.16814 26.8848 -0.0 -0.0 0.0 0.0 0.0 
